<svg xmlns="http://www.w3.org/2000/svg" viewBox="0 0 300 300"><g fill="none" stroke="#C9A24B" stroke-width="5" stroke-linecap="round" stroke-linejoin="round"><path d="M210 54c-32 6-55 34-55 67 0 38 30 68 68 68 14 0 27-4 38-11-8 3-16 5-25 5-38 0-68-30-68-68 0-24 12-46 32-61z"/><circle cx="142" cy="126" r="28"/><path d="M127 127c6 6 12 6 18 0M145 127c6 6 12 6 18 0M135 139c5 4 10 4 15 0"/><path d="M92 190c18 12 36 17 55 17s37-5 55-17M92 190c-7 7-10 17-10 27 0 10 8 18 18 18h84c10 0 18-8 18-18 0-10-3-20-10-27"/><path d="M55 70v18M46 79h18M90 45v12M84 51h12M225 225v14M218 232h14"/></g></svg>